HIERARCHY
ROOT Hips
{
	OFFSET	0	0	0
	CHANNELS 6  Xposition Yposition Zposition Xrotation Yrotation Zrotation
	JOINT Spine
	{
		OFFSET	0	7.06441	1.42252
		CHANNELS 3  Xrotation Yrotation Zrotation
		JOINT Spine1
		{
			OFFSET	0	12.1312	-2.16628
			CHANNELS 3  Xrotation Yrotation Zrotation
			JOINT Spine2
			{
				OFFSET	0	9.19586	0.985658
				CHANNELS 3  Xrotation Yrotation Zrotation
				JOINT Spine3
				{
					OFFSET	0	11.0047	3.27108
					CHANNELS 3  Xrotation Yrotation Zrotation
					JOINT Spine4
					{
						OFFSET	0	16.2904	-1.66804
						CHANNELS 3  Xrotation Yrotation Zrotation
						JOINT Neck
						{
							OFFSET	0	7.77695	-5.4482
							CHANNELS 3  Xrotation Yrotation Zrotation
							JOINT Head
							{
								OFFSET	0	9.33667	-2.7945
								CHANNELS 3  Xrotation Yrotation Zrotation
								End Site
								{
									OFFSET	0	19.4749	-0.942332
								}
							}
						}
					}
					JOINT LeftShoulder
					{
						OFFSET	-4.67917	19.7998	-9.33667
						CHANNELS 3  Xrotation Yrotation Zrotation
						JOINT LeftArm
						{
							OFFSET	-10.2118	-2.7945	3.58522
							CHANNELS 3  Xrotation Yrotation Zrotation
							JOINT LeftForeArm
							{
								OFFSET	-34.1503	-1.55868	2.43761
								CHANNELS 3  Xrotation Yrotation Zrotation
								JOINT LeftHand
								{
									OFFSET	-28.0847	-1.94081	2.00465
									CHANNELS 3  Xrotation Yrotation Zrotation
									End Site
									{
										OFFSET	-10.2495	-0.708301	0.731552
									}
								}
							}
						}
					}
					JOINT RightShoulder
					{
						OFFSET	4.67917	19.7998	-9.33667
						CHANNELS 3  Xrotation Yrotation Zrotation
						JOINT RightArm
						{
							OFFSET	10.2118	-2.7945	3.58522
							CHANNELS 3  Xrotation Yrotation Zrotation
							JOINT RightForeArm
							{
								OFFSET	34.1503	-1.55868	2.43761
								CHANNELS 3  Xrotation Yrotation Zrotation
								JOINT RightHand
								{
									OFFSET	28.0847	-1.94081	2.00465
									CHANNELS 3  Xrotation Yrotation Zrotation
									End Site
									{
										OFFSET	10.2495	-0.708301	0.731552
									}
								}
							}
						}
					}
				}
			}
		}
	}
	JOINT LeftUpLeg
	{
		OFFSET	-9.64713	-3.53221	-0.711262
		CHANNELS 3  Xrotation Yrotation Zrotation
		JOINT LeftLeg
		{
			OFFSET	-2.16918	-42.5043	-0.664435
			CHANNELS 3  Xrotation Yrotation Zrotation
			JOINT LeftFoot
			{
				OFFSET	-2.12038	-39.0853	3.36133
				CHANNELS 3  Xrotation Yrotation Zrotation
				JOINT LeftToeBase
				{
					OFFSET	0	-4.88516	-12.975
					CHANNELS 3  Xrotation Yrotation Zrotation
					End Site
					{
						OFFSET	0	-1.95406	-7.81626
					}
				}
			}
		}
	}
	JOINT RightUpLeg
	{
		OFFSET	9.64713	-3.53221	-0.711262
		CHANNELS 3  Xrotation Yrotation Zrotation
		JOINT RightLeg
		{
			OFFSET	2.16918	-42.5043	-0.664435
			CHANNELS 3  Xrotation Yrotation Zrotation
			JOINT RightFoot
			{
				OFFSET	2.12038	-39.0853	3.36133
				CHANNELS 3  Xrotation Yrotation Zrotation
				JOINT RightToeBase
				{
					OFFSET	0	-4.88516	-12.975
					CHANNELS 3  Xrotation Yrotation Zrotation
					End Site
					{
						OFFSET	0	-1.95406	-7.81626
					}
				}
			}
		}
	}
}
MOTION
Frames: 14
Frame Time: 0.020409
 79.2277 88.0307 -283.27 12.4533 143.686 -19.7772 180 179.991 -178.685 5.19206 0.017633 2.19153 6.00075 0.052899 2.19153 5.89175 0.00882064 1.31492 176.061 -179.97 -179.563 164.482 160.315 -174.34 174.098 145.388 -173.927 0.848471 22.3359 1.19101 168.066 166.365 -112.757 169.07 -112.796 168.043 -0 -0.430276 41.0647 177.375 151.501 -174.292 123.197 100.601 163.143 46.1681 24.3836 -21.0164 -0 -6.38499 -9.98793 177.16 172.224 -149.789 10.4463 9.66073 0.348264 6.07621 0.0161713 -5.05888 177.291 180 -180 179.617 116.088 -153.704 149.697 -169.386 179.984 22.4589 0.0191748 -11.4977 179.54 180 -180
 79.9523 88.0735 -283.129 12.8981 143.757 -20.7425 6.72795e-06 -0.000281131 1.37092 5.2519 -0.000561976 2.28487 6.09181 -0.00168593 2.28487 6.02086 -0.000281131 1.37092 175.872 -179.967 -179.544 163.853 160.149 -173.79 173.863 145.152 -173.675 0.907546 22.8943 1.25924 168.04 166.26 -112.456 168.285 -112.776 167.323 -0 -0.155598 40.8873 177.307 151.391 -174.145 121.553 100.282 164.838 46.2492 23.797 -20.6397 -0 -6.40196 -9.86119 176.881 172.37 -149.667 10.611 9.72682 0.202045 6.11265 0.0142339 -5.18762 177.252 180 -180 0.528092 64.5319 25.3956 147.883 -170.859 179.926 23.4168 0.0201644 -11.5072 179.5 180 -180
 80.4617 87.9813 -283.536 13.0809 144.128 -21.0234 1.8331e-05 -0.000760666 1.38048 5.2718 -0.00152055 2.3008 6.16233 -0.00456164 2.3008 6.18574 -0.000760666 1.38048 175.525 -179.964 -179.541 162.785 160.1 -173.165 173.482 145.004 -173.366 1.07391 22.9003 1.49003 168.466 165.833 -112.332 167.712 -112.902 166.811 -0 0.00561339 40.3615 177.309 151.391 -174.15 121.349 100.195 165.285 46.4117 23.51 -20.4804 -0 -6.28568 -9.65478 176.579 172.627 -149.553 10.6947 9.77101 0.174724 6.52624 0.00720304 -5.15473 177.22 180 -180 1.46892 65.2527 24.7132 146.331 -172.091 179.976 23.6198 -0.0129803 -11.4622 179.466 180 -180
 80.6373 87.8899 -284.009 13.0279 144.572 -21.0962 180 179.999 -178.574 5.24439 0.00164322 2.37731 6.18246 0.00492965 2.37731 6.3109 0.000822061 1.42639 175.181 -179.96 -179.526 161.778 160.05 -172.592 173.116 144.82 -173.069 1.13343 22.7101 1.57896 168.646 165.337 -112.254 168.117 -113.153 167.336 -0 -0.0812153 39.7001 177.298 151.356 -174.124 121.613 100.045 165.255 46.51 23.1836 -20.484 -0 -5.61941 -9.53006 177.108 172.788 -149.674 10.6352 9.14891 0.384049 6.73958 0.0282891 -4.90416 177.168 180 -180 1.42513 65.7514 25.0092 145.038 -173.141 -179.993 23.5003 -0.050111 -11.4442 179.438 180 -180
 80.5767 87.8982 -284.244 13.3407 142.959 -21.602 180 179.988 -178.492 5.16411 0.0243829 2.51384 6.12867 0.0731487 2.51384 6.34324 0.012199 1.5083 174.955 -179.956 -179.499 161.185 159.993 -172.356 172.888 144.601 -172.898 1.09121 22.94 1.51279 169.21 164.213 -112.744 168.715 -113.529 168.039 -0 -0.299026 38.8135 177.773 152.229 -175.158 122.021 99.9637 165.292 46.129 22.5921 -19.7295 -0 -4.70632 -9.48286 179.361 173.525 -149.799 10.8797 8.36011 0.790431 5.35659 -0.141859 -4.78973 177.104 180 -180 0.104462 66.3744 25.8678 141.997 -174.317 179.871 23.0941 -0.0544166 -11.4694 179.418 180 -180
 80.2618 87.918 -284.192 12.8112 144.124 -20.9612 5.64956e-05 -0.00208832 1.54965 5.13964 -0.00417393 2.58275 6.07217 -0.0125218 2.58275 6.22282 -0.00208832 1.54965 175.188 -179.957 -179.485 161.943 160.111 -173.567 173.135 144.534 -173.282 1.28512 22.402 1.80196 169.585 163.657 -112.58 170.335 -114.348 169.602 -0 -0.705918 38.105 177.644 151.8 -174.877 121.084 99.63 165.941 45.6943 22.0678 -18.9082 -0 -3.66178 -9.68727 179.558 174.754 -149.853 11.6889 7.93026 0.679243 4.31306 -0.0593437 -4.80103 177.038 180 -180 2.02866 67.2623 23.6929 138.853 -175.308 179.873 22.5076 -0.0898287 -11.4453 179.4 180 -180
 80.4059 87.9052 -284.177 13.3659 143.205 -21.27 0.000109303 -0.00393309 1.59187 5.17905 -0.00786078 2.65312 6.04707 -0.0235823 2.65313 6.05442 -0.00393309 1.59187 175.655 -179.96 -179.471 163.341 160.09 -174.786 173.597 144.342 -173.725 1.29369 20.6265 1.87967 170.585 164.577 -111.829 172.149 -115.431 171.449 -0 -0.894512 38.0805 177.923 151.404 -175.487 120.09 99.3267 166.911 45.3313 21.8545 -18.2425 -0 -2.85476 -9.95147 0.806023 4.6928 30.1499 11.6875 7.36755 0.530452 3.74184 -0.0519468 -4.86502 176.969 180 -180 1.11514 67.213 25.5068 134.357 -176.387 179.934 20.5766 -0.0245935 -11.4673 179.385 180 -180
 80.4685 88.3218 -284.182 13.0773 144.252 -21.2994 0.000427948 -0.0143362 1.70982 5.12552 -0.0286497 2.8497 5.96543 -0.085949 2.84971 5.92768 -0.0143362 1.70982 175.849 -179.959 -179.432 163.988 160.188 -175.438 173.823 144.385 -173.976 1.0025 20.1723 1.46911 170.843 164.851 -111.466 173.548 -116.79 172.47 -0 -1.03219 38.2028 177.804 151.974 -175.227 118.782 99.2645 168.24 44.752 21.6693 -17.6773 -0 -2.1757 -10.2222 1.45455 4.23411 29.9253 11.5209 7.03531 0.282303 2.0781 0.0798057 -4.91065 176.906 180 -180 0.906189 68.2266 28.4628 130.057 -176.849 -179.477 18.6174 -0.162871 -11.3392 179.367 180 -180
 80.4411 88.4581 -284.67 13.2827 143.764 -21.3257 180 179.986 -178.246 5.04946 0.0275682 2.92286 5.8722 0.0827046 2.92286 5.8435 0.0137956 1.75372 175.905 -179.958 -179.417 164.229 160.4 -175.916 173.925 144.606 -174.166 0.652358 19.53 0.967497 171.916 165.271 -111.827 174.721 -117.492 173.668 -0 -1.0798 38.8575 177.976 152.044 -175.602 119.18 99.236 168.452 44.2593 21.2279 -17.1943 -0 -1.44324 -10.285 2.37858 3.56692 29.5347 11.2979 6.6303 0.379105 1.38808 0.00625091 -4.92125 176.851 180 -180 178.545 110.236 -146.12 127.879 -177.257 -179.243 18.396 -0.151005 -11.0947 179.358 180 -180
 80.5546 88.5693 -285.231 13.4919 144.792 -21.4688 180 179.999 -178.189 5.00408 0.00279168 3.01807 5.81847 0.00837503 3.01807 5.78018 0.00139708 1.81084 175.965 -179.958 -179.398 164.44 160.343 -175.494 174.019 144.789 -174.115 0.360004 19.1044 0.538097 172.699 165.762 -112.016 175.877 -117.397 174.71 -0 -1.12018 39.9498 178.113 151.865 -175.898 118.699 99.2661 169.089 43.7714 20.6187 -16.4835 -0 -0.8193 -10.3743 4.28806 3.77693 28.9671 11.485 6.30113 0.262314 0.272411 0.0330009 -4.94578 176.798 180 -180 176.821 109.599 -143.398 126.318 -177.478 -179.848 16.2898 -0.0452335 -10.9233 179.352 180 -180
 80.7076 88.7926 -285.91 14.0816 145.3 -21.6796 0.000161783 -0.00511549 1.81144 4.9786 -0.0102219 3.01906 5.78126 -0.0306656 3.01906 5.72361 -0.00511549 1.81144 176.049 -179.958 -179.398 164.694 160.16 -174.815 174.124 144.894 -173.989 0.200291 18.8781 0.300611 173.274 166.145 -112.044 177.007 -116.923 175.537 -0 -1.11882 41.1986 178.158 151.472 -175.997 118.661 99.6995 169.459 43.5717 20.336 -15.9887 -0 -0.178207 -10.3951 5.79622 3.62805 28.6538 11.1235 6.07123 0.298405 178.968 179.98 175.051 176.754 180 -180 179.622 109 -147.669 125.986 -177.437 179.688 14.5952 0.240144 -10.7479 179.363 180 -180
 81.1407 88.9056 -286.509 14.6769 146.289 -22.2027 0.000320862 -0.00987342 1.86132 4.98936 -0.0197283 3.1022 5.78437 -0.0591849 3.1022 5.70446 -0.00987342 1.86132 176.113 -179.958 -179.381 164.866 159.882 -174.19 174.179 144.766 -173.828 0.235211 18.7324 0.353962 173.887 166.605 -111.808 178.21 -115.999 176.515 -0 -1.30172 42.7096 178.202 151.448 -176.094 117.817 100.106 170.744 43.5298 20.1954 -16.031 -0 0.399132 -10.465 7.31056 3.64883 28.7077 11.479 5.78608 0.197875 177.304 179.982 175.061 176.713 180 -180 2.57903 71.4264 28.8204 125.425 -176.19 -179.645 7.99666 -0.143504 -10.245 179.368 180 -180
 81.5176 88.8579 -286.652 14.957 146.337 -22.8204 0.000269054 -0.00806107 1.91165 5.0057 -0.0161062 3.18608 5.79507 -0.0483186 3.18608 5.69952 -0.00806107 1.91165 176.156 -179.957 -179.364 164.972 159.993 -174.308 174.231 144.95 -173.901 0.203177 18.7855 0.305459 174.749 166.764 -111.63 178.794 -116.475 177.064 -0 -1.38102 44.0585 178.352 151.852 -176.42 117.208 100.407 171.437 43.5765 20.2494 -16.0282 -0 0.973875 -10.3995 8.57617 3.05245 28.628 11.5386 4.71916 0.181917 176.506 179.899 175.059 176.675 180 -180 4.24644 71.5476 27.3631 124.97 -175.261 -179.684 2.63439 -0.0867298 -9.93413 179.39 180 -180
 81.5427 88.9383 -286.622 15.1265 145.838 -22.9831 180 179.995 -178.122 4.99759 0.00984699 3.12957 5.79417 0.029541 3.12957 5.72489 0.0049282 1.87774 176.083 -179.957 -179.376 164.737 160.002 -173.834 174.172 145.154 -173.788 0.229842 19.2267 0.342763 175.546 166.474 -111.609 179.249 -117.502 177.677 -0 -1.3921 45.4195 178.498 152.169 -176.737 115.865 100.796 172.852 43.7118 20.5947 -16.545 -0 1.48916 -10.7785 9.09386 2.16915 28.5939 11.4538 3.42221 -0.0047044 175.728 179.899 175.125 176.644 180 -180 5.6374 71.9378 26.6651 124.442 -174.558 -179.768 178.531 -179.92 170.291 179.41 180 -180
